<svg width="1162" height="1011" viewBox="0 0 1162 1011" fill="none" xmlns="http://www.w3.org/2000/svg">
<g opacity="0.3">
<path d="M1175.32 754H690.196L606.475 388.444H1091.6L1175.32 754Z" fill="white"/>
<path d="M680.042 754H176.055L92.5407 388.444H596.32L680.042 754Z" fill="white"/>
<path d="M603.573 376.009H1088.91L999.592 -14H514.464L603.573 376.009Z" fill="white"/>
<path d="M593.626 376.009L504.309 -14H0.322723L89.6395 376.009H593.626Z" fill="white"/>
</g>
<path d="M317.375 887.056C317.375 887.056 303.327 879.646 303.635 862.048C304.099 844.449 317.992 842.905 322.932 833.489C327.872 823.918 322.778 807.554 333.584 793.97C349.175 774.364 379.586 783.627 388.694 761.706C397.802 739.785 381.902 720.334 392.399 697.024C406.293 665.996 467.578 678.963 467.578 678.963C467.578 678.963 474.37 694.554 460.631 709.528C446.892 724.502 435.932 724.966 435.932 724.966C436.086 736.852 428.676 741.02 428.676 741.02C427.133 742.101 428.676 887.056 428.676 887.056H317.375Z" fill="#231F20"/>
<path d="M467.732 679.118C485.331 677.265 500.151 685.138 499.842 722.187C499.533 759.236 496.6 774.519 508.795 782.238C520.991 789.956 525.776 799.99 522.843 816.971C519.91 833.952 530.407 833.18 532.877 855.873C535.347 878.566 517.749 882.579 500.459 882.579C483.17 882.579 342.691 883.351 343.463 882.579C344.235 881.807 416.635 707.831 416.635 707.831L467.732 679.118Z" fill="#231F20"/>
<path d="M393.943 720.952C394.869 731.758 395.487 743.645 389.157 752.444C385.144 758.001 378.814 761.398 372.485 763.713C359.827 768.499 345.625 769.888 334.51 777.298C324.63 783.781 317.992 794.896 316.757 806.628C315.522 818.361 319.536 830.556 327.717 839.201" stroke="#231F20" stroke-width="1.54372" stroke-miterlimit="10" stroke-linecap="round"/>
<path d="M497.372 728.362C495.519 738.86 495.674 749.511 497.681 760.009C498.298 763.405 499.224 766.955 501.385 769.734C504.627 774.211 510.185 776.218 515.279 778.533C525.467 783.164 535.502 791.5 536.428 802.615C537.817 818.361 520.991 831.791 523.769 847.383" stroke="#231F20" stroke-width="1.54372" stroke-miterlimit="10" stroke-linecap="round"/>
<path d="M454.611 786.715L453.067 800.608L451.987 809.253L404.749 805.703L421.267 765.566L424.2 767.418L454.611 786.715Z" fill="#DA8B78"/>
<path d="M454.611 786.715L452.913 800.454C448.591 798.602 444.577 796.132 441.026 793.044C433.462 786.406 427.75 777.144 424.045 767.264L454.611 786.715Z" fill="#231F20"/>
<path d="M493.667 740.249C493.667 745.961 493.358 751.827 492.432 757.538C489.499 775.6 480.391 791.809 456.154 792.581C444.885 792.889 435.469 788.876 428.059 782.238C406.292 763.096 400.272 722.496 409.843 708.139C422.656 688.997 453.53 687.762 453.53 687.762C459.088 686.836 464.491 686.836 469.276 687.762C481.626 690.387 490.888 699.34 492.277 715.704C492.895 722.187 493.667 730.986 493.667 740.249Z" fill="#DA8B78"/>
<path d="M471.592 712.462C457.853 727.436 436.086 724.966 436.086 724.966C436.241 736.852 426.978 737.007 426.978 737.007C426.515 737.316 417.562 770.969 417.562 770.969C399.037 754.76 401.661 715.858 406.756 705.978C420.34 679.426 463.564 683.285 483.17 688.38C483.324 694.246 478.847 704.589 471.592 712.462Z" fill="#231F20"/>
<path d="M480.7 689.924C481.935 697.025 481.78 704.589 479.156 711.382C476.531 718.174 471.283 724.04 464.491 726.665C457.698 729.289 449.362 728.208 443.959 723.268" stroke="#231F20" stroke-width="1.54372" stroke-miterlimit="10" stroke-linecap="round"/>
<path d="M436.086 725.122L426.361 715.397" stroke="white" stroke-width="1.54372" stroke-miterlimit="10"/>
<path d="M436.086 725.121L433.153 707.368" stroke="white" stroke-width="1.54372" stroke-miterlimit="10"/>
<path d="M482.398 729.134C482.552 729.597 482.706 730.06 482.861 730.678C482.861 730.832 483.015 731.141 483.015 731.295C483.015 731.45 483.015 731.45 483.015 731.295V731.45C483.015 731.604 483.015 731.604 483.015 731.759C483.015 732.222 483.015 732.685 483.015 733.302C483.015 733.457 483.015 733.611 483.015 733.765V733.92C483.015 734.074 483.015 734.074 483.015 733.92C482.861 734.074 482.861 734.537 482.861 734.692C482.706 735.463 483.169 736.39 483.941 736.544C484.713 736.698 485.639 736.235 485.794 735.463C486.257 733.148 486.257 730.678 485.331 728.362C485.022 727.59 484.25 726.973 483.478 727.282C482.861 727.436 482.089 728.362 482.398 729.134Z" fill="#231F20"/>
<path d="M457.544 730.523C457.853 731.45 458.161 732.376 458.161 733.302C458.161 733.148 458.161 732.993 458.161 732.839C458.316 733.765 458.316 734.537 458.316 735.463C458.316 736.235 459.088 737.007 459.859 737.007C460.786 737.007 461.403 736.39 461.403 735.463C461.558 733.457 461.249 731.45 460.631 729.597C460.477 729.289 460.323 728.825 459.859 728.671C459.551 728.517 459.088 728.362 458.624 728.517C457.853 728.825 457.235 729.597 457.544 730.523Z" fill="#231F20"/>
<path d="M451.369 726.356C451.832 725.276 452.604 724.504 453.376 723.732C453.685 723.423 454.302 723.115 454.765 722.96C454.92 722.96 454.919 722.96 455.074 722.806C455.228 722.806 455.383 722.652 455.383 722.652C455.691 722.497 456 722.497 456.309 722.497C456.772 722.497 456.926 721.88 456.772 721.571C456.618 721.108 456.309 720.953 455.846 721.108C453.221 721.571 451.06 723.269 449.825 725.739C449.671 726.048 449.671 726.511 450.134 726.82C450.751 726.82 451.215 726.82 451.369 726.356Z" fill="#231F20"/>
<path d="M483.169 721.725C484.713 721.725 486.257 722.188 487.646 722.96C487.955 723.114 488.572 723.114 488.727 722.651C488.881 722.342 488.881 721.879 488.418 721.57C486.874 720.644 485.022 720.026 483.169 720.026C482.706 720.026 482.398 720.335 482.398 720.798C482.398 721.416 482.706 721.725 483.169 721.725Z" fill="#231F20"/>
<path d="M459.705 751.828C458.933 757.848 452.758 759.855 445.348 758.929C437.939 758.002 432.227 754.761 432.999 748.74C433.771 742.72 440.254 738.397 447.664 739.323C454.92 740.25 460.477 745.807 459.705 751.828Z" fill="#E87862"/>
<path d="M493.667 740.25C493.667 745.962 493.358 751.828 492.432 757.54C488.418 755.842 485.948 753.063 486.411 748.895C486.875 744.881 489.653 741.794 493.667 740.25Z" fill="#E87862"/>
<path d="M474.062 725.892C476.068 730.987 478.23 736.081 478.075 741.484C477.921 746.733 475.451 751.981 471.592 755.532" stroke="#231F20" stroke-width="1.54372" stroke-miterlimit="10" stroke-linecap="round"/>
<path d="M463.101 757.229C463.41 759.081 465.108 760.471 466.96 761.088C468.813 761.706 470.665 761.706 472.518 761.706" stroke="#231F20" stroke-width="1.54372" stroke-miterlimit="10" stroke-linecap="round"/>
<path d="M529.481 1016.73H452.449L465.571 917.313L479.773 810.179C496.445 812.032 510.956 848.926 516.977 914.534C516.977 915.461 517.131 916.387 517.286 917.313C523.152 981.377 529.481 1016.73 529.481 1016.73Z" fill="white"/>
<path d="M529.481 1016.73H452.449L465.571 917.313H517.286C523.152 981.377 529.481 1016.73 529.481 1016.73Z" fill="#FFCE33"/>
<path d="M363.532 803.387L479.773 810.334L478.693 867.297L473.444 1016.11H329.107L363.532 803.387Z" fill="white"/>
<path d="M391.009 805.085C391.009 805.085 415.709 848.772 436.395 844.45C457.081 840.127 461.403 809.253 461.403 809.253L391.009 805.085Z" fill="#DA8B78"/>
<path d="M478.693 867.297L473.444 1016.11" stroke="#231F20" stroke-width="1.54372" stroke-miterlimit="10" stroke-linecap="round"/>
<path d="M489.653 966.25H450.751L445.503 879.493H495.056L489.653 966.25Z" fill="#007FE5"/>
<path d="M443.341 875.787L441.643 886.13H498.761L497.063 875.787H443.341Z" fill="#231F20"/>
<path d="M413.857 925.033L447.355 909.287L447.818 917.469C447.818 917.469 473.135 919.939 493.204 909.75C493.204 909.75 491.969 918.549 487.029 925.033C487.029 925.033 482.089 948.343 469.43 956.062C456.772 963.78 427.133 975.821 427.133 975.821L413.857 925.033Z" fill="#DA8B78"/>
<path d="M487.183 923.18C481.471 929.664 474.37 934.604 466.343 937.845C464.336 938.617 462.329 939.389 460.168 939.235" stroke="#231F20" stroke-width="1.54372" stroke-miterlimit="10" stroke-linecap="round"/>
<path d="M482.552 937.073C476.377 946.181 466.806 952.973 456.309 955.752" stroke="#231F20" stroke-width="1.54372" stroke-miterlimit="10" stroke-linecap="round"/>
<path d="M428.985 983.539C428.985 983.539 376.962 1021.98 329.107 1016.11C291.286 1011.48 296.997 967.021 307.803 917.314C310.736 904.038 313.824 890.453 316.757 877.177C330.342 813.73 345.007 804.005 363.377 803.387L373.103 872.391L364.612 917.468L359.055 946.799L413.702 925.032L428.985 983.539Z" fill="white"/>
<path d="M428.985 983.538C428.985 983.538 376.962 1021.98 329.107 1016.11C291.286 1011.48 296.997 967.021 307.803 917.313H364.612L359.055 946.644L413.702 924.877L428.985 983.538Z" fill="#FFCE33"/>
<path d="M343.463 957.604C343.463 957.604 344.698 949.422 359.209 946.644C359.209 946.644 352.108 938.308 338.369 942.476" stroke="#231F20" stroke-width="1.54372" stroke-miterlimit="10" stroke-linecap="round"/>
<path d="M370.324 891.688C377.579 886.748 383.6 879.956 387.613 872.083" stroke="#231F20" stroke-width="1.54372" stroke-miterlimit="10" stroke-linecap="round"/>
<path d="M373.257 872.392L359.209 946.645L378.969 938.927" stroke="#231F20" stroke-width="1.54372" stroke-miterlimit="10" stroke-linecap="round"/>
<path d="M425.435 765.103C425.435 765.103 433.308 793.353 425.435 807.092C417.562 820.831 391.164 805.085 391.164 805.085L413.857 760.78L425.435 765.103Z" fill="#231F20"/>
<path d="M420.958 764.795C429.14 773.594 433.925 785.481 434.079 797.522C434.079 802.77 433.153 808.636 429.14 812.033C426.361 814.348 422.502 815.274 418.797 814.811C415.246 814.348 411.85 812.65 408.917 810.334" stroke="#231F20" stroke-width="1.54372" stroke-miterlimit="10" stroke-linecap="round"/>
<path d="M431.455 756.767C430.529 760.626 428.059 764.486 425.435 765.103C407.836 769.117 397.957 740.867 407.219 732.531C416.481 724.195 426.978 737.007 426.978 737.007L431.455 756.767Z" fill="#DA8B78"/>
<path d="M412.159 736.699C420.34 736.544 424.2 745.343 426.67 751.827C426.978 752.753 428.522 752.29 428.213 751.364C426.67 747.35 425.126 743.337 422.347 740.095C419.877 737.162 416.172 735.155 412.313 735.155C411.078 735.155 411.078 736.699 412.159 736.699Z" fill="#231F20"/>
<path d="M423.428 743.336C420.495 745.034 418.643 748.122 418.488 751.364C418.334 754.76 420.341 758.002 423.119 759.854C424.046 760.317 424.817 759.082 423.891 758.465C421.421 756.921 419.878 754.297 420.032 751.364C420.186 748.585 421.73 745.961 424.2 744.571C425.126 744.263 424.354 742.873 423.428 743.336Z" fill="#231F20"/>
<path d="M427.75 768.808C427.75 764.949 424.508 761.707 420.649 761.707C416.79 761.707 413.548 764.949 413.548 768.808C413.548 772.667 416.79 775.909 420.649 775.909C424.508 775.909 427.75 772.822 427.75 768.808Z" fill="#FFCE33"/>
<path d="M1005.56 802.614C979.475 801.534 966.199 835.495 951.225 875.169C936.251 914.842 894.725 1016.26 894.725 1016.26L969.132 1016.57L1005.56 802.614Z" fill="#007FE5"/>
<path d="M1005.56 802.614L1117.17 812.031L1108.38 1016.73L956.319 1016.57L1005.56 802.614Z" fill="#FFA69B"/>
<path d="M1025.94 804.312C1025.94 804.312 1016.99 835.186 1040.91 836.576C1064.69 837.965 1088 809.561 1088 809.561L1117.33 812.031L1108.38 1016.57L956.319 1016.42L1005.56 802.614L1025.94 804.312Z" fill="white"/>
<path d="M1087.84 809.56L1058.67 1016.73H1117.17V812.03L1087.84 809.56Z" fill="#007FE5"/>
<path d="M1022.7 804.158L1012.66 1016.73L956.319 1016.57L982.871 869.766L1005.56 802.614L1022.7 804.158Z" fill="#007FE5"/>
<path d="M982.253 869.147L956.319 1016.57" stroke="#231F20" stroke-width="1.54372" stroke-miterlimit="10" stroke-linecap="round"/>
<path d="M978.857 887.826C978.857 887.826 971.756 875.631 971.756 864.825" stroke="#231F20" stroke-width="1.54372" stroke-miterlimit="10" stroke-linecap="round"/>
<path d="M1117.17 812.03C1137.71 813.728 1151.14 824.843 1151.14 895.545C1151.14 966.247 1165.18 1016.26 1121.65 1016.57C1078.12 1016.73 990.744 1016.57 990.744 1016.57L988.582 971.496L1090.78 960.536L1099.73 864.671L1117.17 812.03Z" fill="#007FE5"/>
<path d="M1099.88 864.825L1090.93 960.69" stroke="#231F20" stroke-width="1.54372" stroke-miterlimit="10" stroke-linecap="round"/>
<path d="M988.583 971.651L1090.78 960.691C1090.78 960.691 1102.35 960.845 1113.62 966.094" stroke="#231F20" stroke-width="1.54372" stroke-miterlimit="10" stroke-linecap="round"/>
<path d="M1097.72 887.827C1097.72 887.827 1086.76 877.021 1088 863.127" stroke="#231F20" stroke-width="1.54372" stroke-miterlimit="10" stroke-linecap="round"/>
<path d="M988.891 977.053C988.891 977.053 961.259 980.295 950.453 990.483C932.7 1007.16 924.21 1016.42 924.21 1016.42L990.898 1016.73L988.891 977.053Z" fill="#FFA69B"/>
<path d="M952.769 1016.57C949.99 1013.49 959.87 1009.78 972.528 1007.62" stroke="#231F20" stroke-width="1.54372" stroke-miterlimit="10" stroke-linecap="round"/>
<path d="M940.11 1016.42C935.788 1016.42 948.137 1006.23 962.339 1000.83C966.816 999.129 970.058 997.894 972.374 996.968" stroke="#231F20" stroke-width="1.54372" stroke-miterlimit="10" stroke-linecap="round"/>
<path d="M930.848 1016.26C933.009 1010.09 947.366 998.666 958.326 993.881C969.441 989.095 972.219 988.941 972.219 988.941" stroke="#231F20" stroke-width="1.54372" stroke-miterlimit="10" stroke-linecap="round"/>
<path d="M1014.67 701.346C1014.67 701.346 993.059 694.091 990.898 712.306C988.737 730.522 1014.67 733.301 1014.67 733.301V701.346Z" fill="#DD4528"/>
<path d="M1080.74 812.031H1034.89L1033.97 801.688L1032.58 785.479L1068.7 760.008L1069.01 760.934L1080.74 812.031Z" fill="#FFA69B"/>
<path d="M1069.01 760.934C1066.39 769.579 1063.76 775.908 1063.76 775.908C1063.76 775.908 1051.87 795.822 1033.97 801.688L1032.58 785.479L1068.86 760.008L1069.01 760.934Z" fill="#231F20"/>
<path d="M1072.72 767.417C1072.72 767.417 1057.12 793.66 1034.59 794.741C1016.68 795.667 1010.66 779.613 1009.11 756.302C1008.81 751.208 1008.65 745.805 1008.65 740.093C1008.65 739.167 1008.65 738.087 1008.65 737.16C1008.96 703.97 1020.54 691.003 1039.83 691.466C1039.83 691.466 1065.92 690.54 1077.19 704.434C1091.7 722.341 1072.72 767.417 1072.72 767.417Z" fill="#FFA69B"/>
<path d="M1024.09 735.153C1023.01 734.382 1021.93 733.61 1020.69 733.301C1019.46 732.992 1017.91 733.147 1017.14 734.227C1016.68 734.845 1016.52 735.462 1016.37 736.234C1016.22 738.087 1016.83 740.093 1017.76 741.637C1018.99 743.798 1020.54 745.805 1022.39 747.349" stroke="#231F20" stroke-width="1.54372" stroke-miterlimit="10" stroke-linecap="round"/>
<path d="M1021.77 753.679C1022.54 754.451 1023.62 754.605 1024.55 754.605C1027.18 754.451 1029.65 752.29 1030.11 749.511" stroke="#231F20" stroke-width="1.54372" stroke-miterlimit="10" stroke-linecap="round"/>
<path d="M1012.51 728.362C1011.74 730.524 1011.58 732.685 1011.89 735.001C1012.05 735.772 1012.97 736.39 1013.74 736.081C1014.67 735.772 1014.98 735.001 1014.83 734.229V733.766C1014.83 733.92 1014.83 734.074 1014.83 733.92V733.766C1014.83 733.457 1014.83 733.302 1014.83 732.994C1014.83 732.531 1014.83 732.067 1014.83 731.604C1014.83 731.45 1014.98 731.141 1014.83 731.604C1014.83 731.45 1014.83 731.45 1014.83 731.296C1014.83 730.987 1014.98 730.832 1014.98 730.524C1015.13 730.061 1015.29 729.597 1015.44 729.134C1015.6 728.826 1015.44 728.208 1015.29 727.899C1015.13 727.591 1014.67 727.282 1014.36 727.128C1013.9 726.973 1013.59 727.128 1013.13 727.282C1012.82 727.745 1012.66 728.054 1012.51 728.362Z" fill="#231F20"/>
<path d="M1034.89 729.133C1034.28 730.832 1033.97 732.684 1033.97 734.536C1033.97 735.308 1034.59 736.08 1035.51 736.08C1036.28 736.08 1037.06 735.463 1037.06 734.536C1037.06 733.919 1037.06 733.147 1037.21 732.53C1037.21 732.684 1037.21 732.838 1037.21 732.993C1037.36 731.912 1037.67 730.986 1037.98 730.06C1038.14 729.751 1037.98 729.134 1037.83 728.825C1037.67 728.516 1037.21 728.207 1036.9 728.053C1036.44 727.899 1036.13 728.053 1035.67 728.207C1035.2 728.516 1035.05 728.825 1034.89 729.133Z" fill="#231F20"/>
<path d="M1032.89 722.649C1036.28 722.186 1039.99 723.729 1042.15 726.508" stroke="#231F20" stroke-width="1.54372" stroke-miterlimit="10" stroke-linecap="round"/>
<path d="M1010.81 724.348C1012.51 722.495 1014.98 721.26 1017.6 721.569" stroke="#231F20" stroke-width="1.54372" stroke-miterlimit="10" stroke-linecap="round"/>
<path d="M1059.44 747.349C1059.44 753.061 1053.88 755.376 1046.94 755.376C1039.99 755.376 1034.43 752.907 1034.43 747.349C1034.43 741.637 1039.99 737.161 1046.94 737.161C1053.88 737.161 1059.44 741.792 1059.44 747.349Z" fill="#FF867D"/>
<path d="M1015.29 748.43C1015.6 752.444 1012.97 754.914 1009.11 756.303C1008.81 751.209 1008.65 745.806 1008.65 740.094C1012.36 741.638 1014.98 744.725 1015.29 748.43Z" fill="#FF867D"/>
<path d="M1071.94 745.96C1071.94 745.96 1039.22 737.932 1053.26 713.542C1053.26 713.542 1040.45 725.428 1027.48 713.542C1027.48 713.542 1006.8 720.334 995.684 697.024C984.569 673.714 1016.06 647.779 1036.75 671.707C1036.75 671.707 1056.66 649.941 1079.04 667.076C1088.46 674.331 1091.39 684.365 1091.7 693.782C1091.7 693.782 1118.87 684.829 1123.5 707.058C1128.13 729.288 1087.69 759.081 1087.69 759.081L1071.94 745.96Z" fill="#DD4528"/>
<path d="M1032.12 678.19C1030.88 674.64 1031.5 670.626 1033.04 667.23C1035.97 660.438 1042.15 655.035 1049.25 653.028C1056.35 651.021 1064.38 652.565 1070.4 657.041C1078.12 662.753 1081.67 672.479 1083.98 681.741" stroke="#DD4528" stroke-width="1.54372" stroke-miterlimit="10" stroke-linecap="round"/>
<path d="M1079.82 691.158C1082.59 686.373 1087.84 683.594 1093.25 682.513C1101.58 680.815 1111 683.131 1116.87 689.306C1122.73 695.481 1124.58 705.515 1120.26 712.925" stroke="#DD4528" stroke-width="1.54372" stroke-miterlimit="10" stroke-linecap="round"/>
<path d="M986.267 679.579C984.569 688.687 987.965 698.567 995.066 704.587C1002.17 710.608 1012.51 712.46 1021.16 709.218" stroke="#DD4528" stroke-width="1.54372" stroke-miterlimit="10" stroke-linecap="round"/>
<path d="M1065.92 764.176C1066.69 767.726 1069.16 771.431 1071.48 771.894C1087.69 775.599 1096.95 749.356 1088.31 741.638C1079.82 733.919 1069.94 745.806 1069.94 745.806L1065.92 764.176Z" fill="#FFA69B"/>
<path d="M1083.83 744.108C1080.13 744.108 1076.88 745.96 1074.41 748.739C1071.79 751.672 1070.4 755.531 1069.01 759.236C1068.7 760.163 1070.09 760.626 1070.55 759.699C1071.79 756.303 1073.18 752.907 1075.49 750.128C1077.66 747.658 1080.59 745.806 1083.83 745.806C1084.76 745.652 1084.76 744.108 1083.83 744.108Z" fill="#231F20"/>
<path d="M1072.56 753.06C1074.72 754.295 1076.27 756.611 1076.42 759.235C1076.42 761.86 1075.03 764.33 1072.87 765.719C1072.1 766.182 1072.87 767.571 1073.64 767.108C1076.27 765.41 1078.12 762.477 1077.96 759.235C1077.81 756.148 1076.11 753.215 1073.33 751.671C1072.41 751.208 1071.63 752.597 1072.56 753.06Z" fill="#231F20"/>
<path d="M962.803 472.26H676.906V792.272H962.803V472.26Z" fill="white"/>
<path d="M962.803 472.26H676.906V504.061H962.803V472.26Z" fill="#007FE5"/>
<path d="M932.391 553.305H769.838C765.979 553.305 763.046 550.217 763.046 546.513C763.046 542.653 766.133 539.72 769.838 539.72H932.391C936.25 539.72 939.184 542.808 939.184 546.513C939.338 550.217 936.25 553.305 932.391 553.305Z" fill="#CDDFF7"/>
<path d="M932.391 583.871H769.838C765.979 583.871 763.046 580.783 763.046 577.078C763.046 573.219 766.133 570.286 769.838 570.286H932.391C936.25 570.286 939.184 573.374 939.184 577.078C939.338 580.783 936.25 583.871 932.391 583.871Z" fill="#CDDFF7"/>
<path d="M932.392 614.282H708.09C704.23 614.282 701.297 611.195 701.297 607.49C701.297 603.63 704.385 600.697 708.09 600.697H932.392C936.251 600.697 939.184 603.785 939.184 607.49C939.338 611.195 936.251 614.282 932.392 614.282Z" fill="#CDDFF7"/>
<path d="M932.392 644.847H708.09C704.23 644.847 701.297 641.759 701.297 638.055C701.297 634.195 704.385 631.262 708.09 631.262H932.392C936.251 631.262 939.184 634.35 939.184 638.055C939.338 641.759 936.251 644.847 932.392 644.847Z" fill="#CDDFF7"/>
<path d="M932.392 675.413H708.09C704.23 675.413 701.297 672.326 701.297 668.621C701.297 664.762 704.385 661.829 708.09 661.829H932.392C936.251 661.829 939.184 664.916 939.184 668.621C939.338 672.326 936.251 675.413 932.392 675.413Z" fill="#CDDFF7"/>
<path d="M932.392 705.824H708.09C704.23 705.824 701.297 702.737 701.297 699.032C701.297 695.172 704.385 692.239 708.09 692.239H932.392C936.251 692.239 939.184 695.327 939.184 699.032C939.338 702.737 936.251 705.824 932.392 705.824Z" fill="#CDDFF7"/>
<path d="M932.392 736.389H708.09C704.23 736.389 701.297 733.302 701.297 729.597C701.297 725.737 704.385 722.804 708.09 722.804H932.392C936.251 722.804 939.184 725.892 939.184 729.597C939.338 733.302 936.251 736.389 932.392 736.389Z" fill="#CDDFF7"/>
<path d="M752.085 539.567H701.297V583.871H752.085V539.567Z" stroke="#CDDFF7" stroke-width="1.54372" stroke-miterlimit="10"/>
<path d="M1175.37 539.567H974.226V627.713H1175.37V539.567Z" stroke="white" stroke-width="1.54372" stroke-miterlimit="10"/>
<path d="M1046.32 583.562C1046.32 592.978 1042 601.469 1035.36 607.026C1030.11 611.349 1023.32 613.973 1016.06 613.973C1008.65 613.973 1002.01 611.349 996.764 607.026C989.972 601.469 985.65 592.978 985.65 583.562C985.65 566.89 999.234 553.305 1015.91 553.305C1032.73 553.305 1046.32 566.89 1046.32 583.562Z" fill="#007FE5"/>
<path d="M1025.79 580.629C1025.79 575.226 1021.46 570.903 1016.06 570.903C1010.66 570.903 1006.34 575.226 1006.34 580.629C1006.34 586.032 1010.66 590.354 1016.06 590.354C1021.46 590.354 1025.79 586.032 1025.79 580.629Z" fill="white"/>
<path d="M1035.36 607.026C1030.11 611.348 1023.32 613.973 1016.06 613.973C1008.65 613.973 1002.01 611.348 996.764 607.026C998.308 596.374 1006.34 588.347 1016.06 588.347C1025.79 588.347 1033.81 596.374 1035.36 607.026Z" fill="white"/>
<path d="M1160.24 573.065H1065C1062.99 573.065 1061.45 571.521 1061.45 569.514C1061.45 567.507 1062.99 565.964 1065 565.964H1160.24C1162.25 565.964 1163.79 567.507 1163.79 569.514C1163.95 571.521 1162.25 573.065 1160.24 573.065Z" fill="#F0F7FF"/>
<path d="M1129.37 587.268H1065C1062.99 587.268 1061.45 585.724 1061.45 583.717C1061.45 581.71 1062.99 580.167 1065 580.167H1129.37C1131.38 580.167 1132.92 581.71 1132.92 583.717C1133.07 585.57 1131.38 587.268 1129.37 587.268Z" fill="#F0F7FF"/>
<path d="M1144.81 601.313H1065C1062.99 601.313 1061.45 599.77 1061.45 597.763C1061.45 595.756 1062.99 594.212 1065 594.212H1144.81C1146.81 594.212 1148.36 595.756 1148.36 597.763C1148.51 599.77 1146.81 601.313 1144.81 601.313Z" fill="#F0F7FF"/>
<path d="M600.956 492.791H396.722V613.047H600.956V492.791Z" stroke="white" stroke-width="1.54372" stroke-miterlimit="10"/>
<path d="M448.591 520.578C471.438 520.269 467.424 557.473 484.714 561.178C505.863 565.654 504.473 552.996 524.387 552.996C544.919 552.996 547.08 598.69 585.981 562.721V601.777H411.542C411.542 601.777 425.744 520.887 448.591 520.578Z" fill="#007FE5"/>
<path d="M552.791 568.279C529.944 567.97 519.293 585.877 501.231 586.032C483.17 586.34 463.719 538.485 431.918 538.485C424.2 538.485 417.562 541.727 411.696 548.211V601.623H586.136C585.981 601.778 575.638 568.433 552.791 568.279Z" fill="white"/>
<path d="M545.69 568.742C527.629 571.675 517.286 585.723 501.231 586.032C483.17 586.34 463.719 538.485 431.918 538.485C431.455 538.485 430.838 538.485 430.375 538.64C418.488 562.567 411.696 601.778 411.696 601.778H586.136C586.136 601.778 580.733 584.334 569 574.608C558.194 579.085 551.402 574.763 545.69 568.742Z" fill="#CDDFF7"/>
<path d="M411.542 601.778H585.981" stroke="white" stroke-width="1.54372" stroke-miterlimit="10"/>
<path d="M411.541 601.778V504.215" stroke="white" stroke-width="1.54372" stroke-miterlimit="10"/>
<path d="M722.754 869.148C755.79 913.915 752.239 1016.26 752.239 1016.26H664.093L667.644 951.428L641.864 1016.26H549.704C549.704 1016.26 585.364 893.847 653.905 869.148H722.754Z" fill="#007FE5"/>
<path d="M641.863 1016.26L673.51 929.198C673.51 929.198 692.343 924.413 704.693 867.758" stroke="#231F20" stroke-width="1.54372" stroke-miterlimit="10" stroke-linecap="round"/>
<path d="M673.51 929.199L692.96 869.148" stroke="#231F20" stroke-width="1.54372" stroke-miterlimit="10" stroke-linecap="round"/>
<path d="M728.312 875.786L641.863 874.551" stroke="#231F20" stroke-width="1.54372" stroke-miterlimit="10" stroke-linecap="round"/>
<path d="M763.045 722.65C776.63 720.334 793.92 729.288 798.088 757.692C802.256 786.096 806.424 803.695 806.424 803.695L846.715 746.732L865.239 788.721C865.239 788.721 830.043 881.035 795.618 881.035C744.829 881.035 763.045 722.65 763.045 722.65Z" fill="#FF7D70"/>
<path d="M846.714 746.732C852.58 737.315 896.731 727.59 898.12 732.838C899.509 738.087 878.669 746.732 878.669 746.732C878.669 746.732 919.269 751.054 922.048 753.987C924.981 756.92 922.048 758.001 922.048 758.001C922.048 758.001 928.994 758.31 928.84 761.86C928.531 765.411 918.034 766.491 918.034 766.491C918.034 766.491 919.732 769.424 916.182 772.049C912.631 774.673 865.239 788.875 865.239 788.875L846.714 746.732Z" fill="#FF7D70"/>
<path d="M859.527 767.417C868.635 764.484 875.736 755.685 876.508 746.113" stroke="#231F20" stroke-width="1.54372" stroke-miterlimit="10" stroke-linecap="round"/>
<path d="M884.536 758.155L922.202 758.001" stroke="#231F20" stroke-width="1.54372" stroke-miterlimit="10" stroke-linecap="round"/>
<path d="M918.189 766.336L887.778 771.431" stroke="#231F20" stroke-width="1.54372" stroke-miterlimit="10" stroke-linecap="round"/>
<path d="M752.085 816.971C752.085 816.971 746.99 845.067 722.754 869.149H653.75C653.75 869.149 638.313 821.448 640.165 794.124L646.186 746.423L668.57 741.792L755.635 724.039L762.891 722.496L767.985 772.358C768.139 772.512 775.858 806.628 752.085 816.971Z" fill="#FF7D70"/>
<path d="M752.084 816.97C752.084 816.97 746.99 845.066 722.754 869.148H653.75C653.75 869.148 638.313 821.447 640.165 794.123L646.186 746.422L658.072 743.952C658.072 743.952 690.49 778.223 717.968 770.659C745.138 763.094 755.326 725.119 755.481 724.193L762.736 722.649L767.83 772.511C768.139 772.511 775.858 806.627 752.084 816.97Z" fill="#231F20"/>
<path d="M646.34 746.422C631.984 749.664 614.077 767.108 590.149 860.503C566.221 953.898 546.307 989.095 546.307 989.095H604.042L647.73 841.67C654.676 818.205 655.911 793.351 650.971 769.269L646.34 746.422Z" fill="#FF7D70"/>
<path d="M610.526 974.275L607.439 983.228H546.307L549.704 974.275H610.526Z" fill="#FFCE33"/>
<path d="M614.694 964.241L613.305 969.953H552.174L554.026 964.241H614.694Z" fill="#FFCE33"/>
<path d="M574.249 969.953H565.913L562.671 964.241H571.007L574.249 969.953Z" fill="#FFDE83"/>
<path d="M595.706 969.953H579.497L576.101 964.241H592.31L595.706 969.953Z" fill="#FFDE83"/>
<path d="M581.967 983.228H573.631L568.537 974.275H576.873L581.967 983.228Z" fill="#FFDE83"/>
<path d="M603.425 983.229H587.216L581.967 974.275H598.176L603.425 983.229Z" fill="#FFDE83"/>
<path d="M546.153 989.095C546.153 989.095 495.21 1005.3 491.814 1010.86C488.418 1016.42 506.016 1016.88 506.016 1016.88L578.262 1016.26L603.734 989.095H546.153Z" fill="#FF7D70"/>
<path d="M603.888 989.095C599.257 1006.08 602.19 1016.88 565.295 1016.88C528.4 1016.88 568.691 1002.99 568.691 1002.99L603.888 989.095Z" fill="#FF7D70"/>
<path d="M565.295 1016.88C528.4 1016.88 568.691 1002.99 568.691 1002.99L578.417 999.129" stroke="#231F20" stroke-width="1.54372" stroke-miterlimit="10" stroke-linecap="round"/>
<path d="M756.407 694.09C750.541 687.452 740.507 686.68 733.714 692.392C727.076 698.258 726.304 708.292 732.016 715.084C737.882 721.722 747.916 722.494 754.709 716.783C761.347 710.916 762.119 700.882 756.407 694.09Z" stroke="#FFCE33" stroke-width="3.08743" stroke-miterlimit="10"/>
<path d="M685.859 687.143C676.443 673.25 653.904 672.941 640.011 682.357C626.117 691.774 622.412 710.762 631.829 724.655C641.246 738.549 660.234 742.254 674.127 732.837C687.866 723.266 695.276 701.036 685.859 687.143Z" fill="#231F20"/>
<path d="M669.187 676.955C659.616 671.552 647.421 671.397 638.004 677.109C629.205 682.358 622.258 692.855 623.339 703.507C623.648 706.749 624.883 709.682 626.735 712.306C628.588 714.93 631.058 716.937 633.528 718.944C634.299 719.561 635.38 718.481 634.608 717.863C630.44 714.467 626.426 710.762 625.192 705.205C624.111 699.956 625.5 694.399 627.97 689.768C632.601 681.123 641.555 675.257 651.435 674.485C657.301 674.022 663.321 675.411 668.416 678.344C669.187 678.807 669.959 677.572 669.187 676.955Z" fill="#231F20"/>
<path d="M687.866 701.81C688.329 711.072 687.866 720.798 682.772 728.825C680.456 732.376 677.369 735.309 673.51 737.161C669.496 739.013 665.019 739.631 660.697 739.168C655.602 738.55 650.817 736.389 646.803 733.302C646.031 732.684 645.26 734.074 646.031 734.691C653.441 740.403 663.321 742.718 672.275 739.477C680.919 736.235 686.168 728.362 688.175 719.563C689.564 713.851 689.564 707.83 689.255 701.964C689.41 700.884 687.866 700.884 687.866 701.81Z" fill="#231F20"/>
<path d="M735.876 729.596C735.876 729.596 684.315 741.328 684.47 740.248C684.624 739.321 689.255 708.447 690.953 696.406C691.417 693.473 691.725 691.62 691.725 691.62L694.504 692.238L734.641 700.883L735.721 722.495V722.804L735.876 729.596Z" fill="#FF7D70"/>
<path d="M735.567 722.649C732.788 722.186 729.855 721.568 726.922 720.642C712.102 716.011 701.296 706.749 693.887 696.406C694.195 694.553 694.35 693.01 694.504 692.238L734.641 700.882L735.567 722.649Z" fill="#231F20"/>
<path d="M717.197 711.38C686.94 701.963 672.738 672.633 672.738 654.88C672.738 637.127 685.242 617.831 702.377 613.508C719.358 609.34 748.38 609.958 757.333 656.732C757.333 657.041 757.488 657.35 757.488 657.659C758.568 663.525 759.186 668.773 759.494 673.713C761.501 708.91 743.749 719.562 717.197 711.38Z" fill="#FF7D70"/>
<path d="M707.626 612.582C707.626 612.582 716.888 666.612 672.583 685.909C672.583 685.909 646.803 660.437 664.402 633.886C677.678 613.663 707.626 612.582 707.626 612.582Z" fill="#231F20"/>
<path d="M707.626 612.582C707.626 612.582 730.473 597.145 750.387 607.025C770.3 616.905 760.421 636.201 742.205 631.724C723.989 627.093 707.626 612.582 707.626 612.582Z" fill="#231F20"/>
<path d="M706.854 613.199C711.639 607.642 718.123 603.937 725.069 602.239C731.707 600.695 740.043 600.695 745.91 604.555C749.923 607.025 751.313 611.347 751.158 615.824C751.158 616.75 752.702 616.75 752.702 615.824C752.856 611.81 751.93 607.642 748.843 604.709C746.064 602.085 742.205 600.85 738.5 600.232C730.781 598.997 722.754 600.387 715.962 604.092C712.102 606.098 708.706 608.877 705.773 612.119C705.155 612.891 706.236 613.971 706.854 613.199Z" fill="#231F20"/>
<path d="M701.296 612.736C687.866 612.891 674.127 617.213 663.321 625.549C660.697 627.556 658.381 629.872 656.837 632.805C655.294 635.738 654.367 639.134 653.904 642.376C652.978 648.396 653.596 654.725 656.683 660.128C660.388 666.458 667.026 669.854 673.51 672.633C674.436 673.096 675.208 671.706 674.281 671.243C668.724 668.773 662.858 666.149 659.307 661.055C655.757 656.269 654.831 650.249 655.294 644.383C655.602 641.295 656.22 638.053 657.455 635.12C658.69 632.187 660.697 629.563 663.167 627.556C668.107 623.388 673.973 620.146 679.993 617.985C686.786 615.515 694.041 614.126 701.296 613.971C702.223 614.28 702.223 612.736 701.296 612.736Z" fill="#231F20"/>
<path d="M734.795 676.184C735.104 678.345 736.493 680.352 738.345 681.432C740.507 682.667 743.131 682.667 745.292 681.587C746.218 681.123 745.447 679.888 744.52 680.197C742.822 680.969 740.661 680.969 738.963 679.888C737.419 678.962 736.493 677.419 736.184 675.566C736.184 675.103 735.567 674.949 735.258 675.103C734.949 675.257 734.795 675.72 734.795 676.184Z" fill="#231F20"/>
<path d="M746.064 647.471C746.218 647.625 746.373 647.934 746.373 648.088C746.373 648.242 746.527 648.242 746.527 648.397C746.527 648.551 746.681 648.706 746.681 648.706C746.527 648.551 746.527 648.397 746.681 648.551V648.706C746.681 648.86 746.836 649.014 746.836 649.014C746.836 649.169 746.99 649.477 746.99 649.632C746.99 649.786 747.145 650.095 747.145 650.249C747.145 650.404 747.145 650.558 747.145 650.558C747.145 650.558 747.145 650.558 747.145 650.712C747.145 650.867 747.145 650.867 747.145 650.558C747.145 650.712 747.145 651.021 747.145 651.175C747.145 651.484 747.145 651.639 747.145 651.947C747.145 652.719 747.916 653.491 748.688 653.491C749.46 653.491 750.232 652.874 750.232 651.947C750.232 649.786 749.615 647.471 748.534 645.618C748.071 645.001 747.145 644.538 746.373 645.001C745.91 645.772 745.601 646.699 746.064 647.471Z" fill="#231F20"/>
<path d="M719.512 653.953C719.821 654.416 720.13 655.034 720.284 655.497C720.284 655.342 720.13 655.188 720.13 655.188C720.593 656.269 720.901 657.349 721.056 658.43C721.056 658.739 721.519 659.202 721.828 659.356C722.136 659.51 722.599 659.665 723.063 659.51C723.371 659.356 723.834 659.202 723.989 658.739C723.989 658.584 724.143 658.43 724.143 658.43C724.143 658.121 724.143 657.812 724.143 657.658C723.834 655.806 723.217 654.107 722.291 652.409C721.828 651.792 720.901 651.329 720.13 651.792C719.358 652.255 719.049 653.181 719.512 653.953Z" fill="#231F20"/>
<path d="M713.337 651.176C713.337 650.867 713.491 650.713 713.646 650.404V650.249C713.646 650.095 713.8 649.941 713.8 649.941C713.955 649.632 714.109 649.478 714.263 649.169C714.263 649.014 714.418 649.014 714.418 648.86L714.572 648.706C714.726 648.551 714.881 648.397 715.19 648.088C715.344 647.934 715.344 647.934 715.498 647.779L715.653 647.625H715.807C715.961 647.471 716.27 647.316 716.425 647.162C716.579 647.162 716.733 647.008 716.733 647.008C716.733 647.008 716.888 647.008 716.888 646.853C716.733 646.853 716.888 646.853 717.042 646.853C717.351 646.699 717.66 646.39 717.505 645.927C717.351 645.618 716.888 645.155 716.579 645.464C714.263 646.39 712.411 648.397 711.793 650.867C711.639 651.33 711.948 651.793 712.256 651.793C712.874 651.793 713.337 651.639 713.337 651.176Z" fill="#231F20"/>
<path d="M743.44 641.141C744.057 640.987 744.829 640.987 745.601 640.987C745.91 640.987 746.218 640.987 746.527 641.141C746.836 641.295 747.299 641.295 747.608 641.45C747.916 641.604 748.534 641.295 748.534 640.987C748.688 640.523 748.379 640.215 748.071 640.06C746.527 639.443 744.675 639.288 742.977 639.597C742.513 639.752 742.359 640.215 742.513 640.523C742.668 640.987 743.131 641.295 743.44 641.141Z" fill="#231F20"/>
<path d="M730.781 674.794C731.244 680.351 725.841 683.284 718.895 683.902C711.948 684.519 706.236 682.512 705.773 676.8C705.31 671.243 710.559 666.149 717.351 665.531C724.298 665.068 730.318 669.236 730.781 674.794Z" fill="#FF5C5C"/>
<path d="M759.495 673.867C756.407 673.713 753.937 672.478 752.702 669.545C750.85 665.222 752.857 659.974 757.333 656.886C757.333 657.195 757.488 657.504 757.488 657.812C758.568 663.679 759.186 668.927 759.495 673.867Z" fill="#FF5C5C"/>
<path d="M694.967 693.318C694.967 697.023 693.424 701.037 691.262 702.118C676.288 709.373 661.469 685.754 668.107 676.492C674.745 667.075 686.94 676.492 686.94 676.492L694.967 693.318Z" fill="#FF7D70"/>
<path d="M673.355 679.117C680.765 677.265 685.859 684.52 689.41 689.769C690.027 690.541 691.262 689.769 690.799 688.997C688.638 685.755 686.477 682.514 683.389 680.198C680.456 678.037 676.751 676.802 673.046 677.728C672.12 677.882 672.429 679.426 673.355 679.117Z" fill="#231F20"/>
<path d="M684.933 682.822C682.617 684.983 681.537 688.379 682.309 691.467C683.081 694.4 685.396 696.87 688.175 697.796C689.101 698.105 689.564 696.561 688.638 696.252C686.322 695.48 684.316 693.473 683.852 691.004C683.235 688.379 684.161 685.601 686.168 683.902C686.785 683.131 685.705 682.05 684.933 682.822Z" fill="#231F20"/>
<path d="M698.981 705.515C693.115 698.877 683.081 698.105 676.288 703.817C669.65 709.683 668.878 719.717 674.59 726.509C680.456 733.147 690.491 733.919 697.283 728.207C704.075 722.341 704.847 712.153 698.981 705.515Z" stroke="#FFCE33" stroke-width="3.08743" stroke-miterlimit="10"/>
<path opacity="0.45" d="M720.13 673.56C729.593 673.56 737.265 665.888 737.265 656.425C737.265 646.961 729.593 639.289 720.13 639.289C710.666 639.289 702.994 646.961 702.994 656.425C702.994 665.888 710.666 673.56 720.13 673.56Z" fill="white"/>
<path d="M720.13 673.56C729.593 673.56 737.265 665.888 737.265 656.425C737.265 646.961 729.593 639.289 720.13 639.289C710.666 639.289 702.994 646.961 702.994 656.425C702.994 665.888 710.666 673.56 720.13 673.56Z" stroke="#231F20" stroke-width="3.08743" stroke-miterlimit="10" stroke-linecap="round"/>
<path opacity="0.45" d="M772.619 651.513C776.216 642.76 772.036 632.748 763.284 629.151C754.531 625.554 744.519 629.734 740.922 638.487C737.325 647.24 741.504 657.251 750.257 660.848C759.01 664.445 769.022 660.266 772.619 651.513Z" fill="white"/>
<path d="M772.619 651.513C776.216 642.76 772.036 632.748 763.284 629.151C754.531 625.554 744.519 629.734 740.922 638.487C737.325 647.24 741.504 657.251 750.257 660.848C759.01 664.445 769.022 660.266 772.619 651.513Z" stroke="#231F20" stroke-width="3.08743" stroke-miterlimit="10" stroke-linecap="round"/>
<path d="M703.921 661.982L698.672 665.378L686.94 676.338" stroke="#231F20" stroke-width="3.08743" stroke-miterlimit="10" stroke-linecap="round"/>
<path d="M737.265 653.954L741.278 652.256" stroke="#231F20" stroke-width="3.08743" stroke-miterlimit="10" stroke-linecap="round"/>
<path d="M739.58 658.431C741.896 657.66 744.212 657.042 746.681 657.042C747.608 657.042 748.38 657.196 749.151 657.66C750.232 658.277 750.695 659.512 750.849 660.747C751.158 662.908 750.695 665.069 749.615 666.922C748.688 668.774 747.145 670.472 745.601 671.862" fill="#FF7D70"/>
<path d="M739.889 659.203C742.051 658.586 744.212 657.814 746.373 657.814C747.299 657.814 748.38 657.814 748.997 658.432C749.615 659.049 750.078 659.821 750.232 660.747C751.004 664.915 748.071 668.774 745.292 671.399C744.52 672.016 745.601 673.097 746.373 672.479C749.769 669.392 753.011 664.761 751.622 659.975C751.004 657.814 749.46 656.579 747.299 656.425C744.675 656.27 742.05 657.042 739.581 657.814C738.5 657.968 738.809 659.512 739.889 659.203Z" fill="#231F20"/>
<path d="M1113.47 952.664L1120.11 1016.57H1180L1186.64 952.664H1113.47Z" fill="white"/>
<path d="M1117.17 972.732C1119.18 972.732 1119.18 1003.61 1121.34 1003.61C1123.35 1003.61 1123.35 972.732 1125.51 972.732C1127.52 972.732 1127.52 1003.61 1129.68 1003.61C1131.68 1003.61 1131.68 972.732 1133.85 972.732C1135.85 972.732 1135.85 1003.61 1138.01 1003.61C1140.02 1003.61 1140.02 972.732 1142.18 972.732C1144.19 972.732 1144.19 1003.61 1146.35 1003.61C1148.36 1003.61 1148.36 972.732 1150.52 972.732C1152.53 972.732 1152.53 1003.61 1154.69 1003.61C1156.69 1003.61 1156.69 972.732 1158.85 972.732C1160.86 972.732 1160.86 1003.61 1163.02 1003.61C1165.03 1003.61 1165.03 972.732 1167.19 972.732C1169.2 972.732 1169.2 1003.61 1171.36 1003.61C1173.37 1003.61 1173.37 972.732 1175.53 972.732C1177.53 972.732 1177.53 1003.61 1179.69 1003.61C1181.7 1003.61 1181.7 972.732 1183.86 972.732" stroke="#CDDFF7" stroke-width="1.54372" stroke-miterlimit="10"/>
<path d="M1201.15 890.916C1199.45 895.856 1196.06 900.95 1190.96 905.272C1185.71 909.903 1178.77 913.454 1172.59 915.152C1166.26 916.85 1160.71 916.541 1157.77 913.3C1152.06 906.816 1159.93 890.607 1170.28 881.499C1180.77 872.391 1193.9 870.23 1199.61 876.868C1202.7 880.418 1203 885.513 1201.15 890.916Z" fill="#FFCE33"/>
<path d="M1119.18 926.73C1109.76 920.401 1106.06 909.441 1111 902.185C1115.94 894.93 1127.36 894.312 1136.78 900.796C1146.2 907.279 1153.45 920.555 1148.51 927.656C1143.73 934.912 1128.6 933.214 1119.18 926.73Z" fill="#FFCE33"/>
<path d="M1120.11 963.933C1111.15 970.88 1099.58 970.88 1094.17 964.088C1088.92 957.141 1091.86 946.026 1100.96 939.08C1109.92 932.133 1124.89 929.509 1130.14 936.301C1135.54 943.248 1129.22 956.987 1120.11 963.933Z" fill="#FFCE33"/>
<path d="M1199.61 910.829C1199.61 911.293 1199.3 911.601 1198.99 911.756C1193.43 912.528 1187.57 914.997 1181.08 919.32C1169.51 927.193 1160.09 938.153 1154.07 950.812C1153.76 951.429 1153.45 952.047 1153.14 952.819H1151.44C1151.75 951.892 1152.22 951.12 1152.53 950.194C1158.7 937.227 1168.27 926.112 1180.16 918.085C1186.8 913.608 1192.82 910.984 1198.68 910.212C1199.3 910.058 1199.61 910.366 1199.61 910.829Z" fill="#231F20"/>
<path d="M1180.62 892.304C1168.27 899.56 1158.7 912.218 1153.91 928.118C1151.6 935.528 1150.36 943.71 1149.9 952.663H1148.36C1148.36 951.892 1148.36 951.12 1148.51 950.193C1148.67 947.724 1148.82 945.254 1149.13 942.938C1149.75 937.535 1150.83 932.441 1152.37 927.501C1157.31 911.292 1167.19 898.17 1179.85 890.76C1180.16 890.606 1180.62 890.606 1180.93 891.069C1181.08 891.687 1180.93 892.15 1180.62 892.304Z" fill="#231F20"/>
<path d="M1195.59 964.396C1195.44 964.396 1195.44 964.396 1195.29 964.396C1194.98 964.396 1194.67 964.242 1194.51 963.933C1192.2 957.604 1189.27 949.885 1183.25 945.408C1177.69 941.24 1169.66 940.623 1163.49 943.865C1159.78 945.717 1156.85 948.959 1155.15 952.664H1153.45C1155.3 948.341 1158.55 944.637 1162.71 942.475C1169.35 938.925 1178 939.697 1184.02 944.173C1190.5 948.959 1193.43 956.986 1195.75 963.47C1196.21 963.779 1195.9 964.242 1195.59 964.396Z" fill="#231F20"/>
<path d="M1149.75 952.663H1148.2C1148.2 951.428 1148.2 950.193 1148.2 948.958C1148.05 943.246 1147.12 937.997 1145.42 933.212C1142.18 923.487 1135.85 915.459 1128.13 911.291C1127.83 911.137 1127.67 910.674 1127.83 910.211C1127.98 909.902 1128.44 909.747 1128.91 909.902C1137.09 914.379 1143.57 922.715 1146.97 932.749C1148.05 935.991 1148.82 939.541 1149.28 943.092C1149.59 946.179 1149.75 949.267 1149.75 952.663Z" fill="#231F20"/>
<path d="M1147.43 952.663C1146.66 948.495 1144.96 944.482 1141.72 941.549C1138.01 938.152 1132.61 936.763 1127.05 937.535C1122.27 938.307 1117.33 940.777 1113.16 944.636C1112.85 944.945 1112.39 944.945 1112.08 944.636C1111.77 944.327 1111.77 943.864 1112.08 943.555C1116.56 939.387 1121.65 936.763 1126.75 935.991C1132.61 935.065 1138.63 936.763 1142.65 940.314C1145.27 942.629 1146.97 945.717 1147.89 948.804C1148.05 949.267 1148.2 949.73 1148.36 950.193C1148.51 950.965 1148.82 951.737 1148.97 952.663H1147.43Z" fill="#231F20"/>
<path d="M622.413 1010.86H747.917V1016.11H610.526C613.459 1012.87 617.782 1010.86 622.413 1010.86Z" fill="black"/>
<path d="M728.93 1016.27H918.498L951.533 908.823C953.54 902.339 948.6 895.701 941.808 895.701H773.389C768.912 895.701 765.052 898.634 763.663 902.802L728.93 1016.27Z" fill="black"/>
<path d="M731.862 1016.27H921.431L954.466 908.823C956.473 902.339 951.533 895.701 944.741 895.701H776.321C771.845 895.701 767.985 898.634 766.596 902.802L731.862 1016.27Z" fill="white"/>
<path d="M833.13 967.021C834.365 969.799 837.144 971.652 840.849 971.652C846.869 971.652 853.507 966.712 855.514 960.691C856.132 958.839 856.286 957.295 855.977 955.751C855.206 952.201 852.118 949.731 847.487 949.731C841.003 949.731 834.365 954.671 832.822 960.691C832.05 963.007 832.204 965.168 833.13 967.021Z" fill="#CDDFF7"/>
<path d="M731.862 1016.27L932.854 978.754L921.431 1016.27H731.862Z" fill="#231F20"/>
<path d="M558.657 744.572C559.583 751.364 564.832 756.613 571.624 757.539C564.832 758.465 559.583 763.714 558.657 770.506C557.731 763.714 552.482 758.465 545.69 757.539C552.482 756.613 557.731 751.21 558.657 744.572Z" fill="white"/>
<path d="M326.945 700.113C327.872 706.905 333.12 712.154 339.913 713.08C333.12 714.006 327.872 719.255 326.945 726.047C326.019 719.255 320.771 714.006 313.978 713.08C320.771 712.154 326.174 706.905 326.945 700.113Z" fill="white"/>
<path d="M939.338 812.032C940.264 818.825 945.513 824.073 952.305 824.999C945.513 825.926 940.264 831.174 939.338 837.967C938.412 831.174 933.163 825.926 926.371 824.999C933.163 824.073 938.412 818.67 939.338 812.032Z" fill="white"/>
<path d="M1155.92 763.096C1156.85 769.889 1162.1 775.137 1168.89 776.063C1162.1 776.99 1156.85 782.238 1155.92 789.031C1155 782.238 1149.75 776.99 1142.95 776.063C1149.75 775.137 1155.15 769.734 1155.92 763.096Z" fill="white"/>
<path d="M610.526 635.74C611.452 642.532 616.701 647.781 623.493 648.707C616.701 649.633 611.452 654.882 610.526 661.674C609.6 654.882 604.351 649.633 597.559 648.707C604.351 647.781 609.6 642.377 610.526 635.74Z" fill="white"/>
<path d="M969.286 496.341C982.586 496.341 993.368 485.559 993.368 472.259C993.368 458.959 982.586 448.177 969.286 448.177C955.985 448.177 945.204 458.959 945.204 472.259C945.204 485.559 955.985 496.341 969.286 496.341Z" fill="white"/>
<path d="M881.477 861.448C882.688 853.958 877.598 846.903 870.108 845.691C862.617 844.479 855.562 849.569 854.35 857.06C853.138 864.551 858.229 871.606 865.719 872.818C873.21 874.029 880.265 868.939 881.477 861.448Z" fill="white"/>
<path d="M1164.72 895.547C1180.32 895.547 1192.97 882.899 1192.97 867.297C1192.97 851.695 1180.32 839.047 1164.72 839.047C1149.12 839.047 1136.47 851.695 1136.47 867.297C1136.47 882.899 1149.12 895.547 1164.72 895.547Z" fill="white"/>
<path opacity="0.2" d="M1066.61 1033.43L138.975 1058L499.676 3H796.725L1066.61 1033.43Z" fill="white"/>
<path d="M901 192.495V127C927.081 155.278 953.308 170.077 951.696 239.527C913.015 237.886 901.781 207.488 901 192.495Z" fill="#F4CD31"/>
<path d="M1004.51 192.495V127C978.433 155.278 952.206 170.077 953.818 239.527C992.499 237.886 1003.73 207.488 1004.51 192.495Z" fill="#F4CD31"/>
<path d="M521.683 225.341V288.939H481V138.189H520.209V197.37H521.388C523.943 190.156 528.194 184.537 534.139 180.513C540.084 176.44 547.233 174.404 555.586 174.404C563.595 174.404 570.547 176.22 576.443 179.851C582.389 183.482 586.983 188.488 590.226 194.867C593.518 201.247 595.139 208.558 595.09 216.803V288.939H554.407V225.341C554.456 219.747 553.056 215.355 550.206 212.165C547.405 208.975 543.401 207.381 538.192 207.381C534.9 207.381 532.001 208.117 529.496 209.589C527.039 211.012 525.123 213.073 523.747 215.772C522.42 218.422 521.732 221.612 521.683 225.341Z" fill="white"/>
<path d="M615.174 288.939V175.876H654.678V197.37H655.857C657.921 189.42 661.188 183.605 665.659 179.925C670.18 176.244 675.461 174.404 681.505 174.404C683.274 174.404 685.018 174.551 686.738 174.846C688.507 175.091 690.202 175.459 691.823 175.95V210.619C689.809 209.932 687.327 209.417 684.379 209.074C681.431 208.73 678.901 208.558 676.788 208.558C672.808 208.558 669.221 209.466 666.028 211.282C662.883 213.048 660.402 215.551 658.584 218.79C656.766 221.98 655.857 225.734 655.857 230.052V288.939H615.174Z" fill="white"/>
<path d="M705.163 288.939V175.876H745.846V288.939H705.163ZM725.505 164.099C720.002 164.099 715.285 162.283 711.354 158.652C707.423 155.02 705.458 150.653 705.458 145.549C705.458 140.446 707.423 136.078 711.354 132.447C715.285 128.816 720.002 127 725.505 127C731.057 127 735.774 128.816 739.656 132.447C743.586 136.078 745.552 140.446 745.552 145.549C745.552 150.653 743.586 155.02 739.656 158.652C735.774 162.283 731.057 164.099 725.505 164.099Z" fill="white"/>
<path d="M870.052 212.68H832.612C832.415 210.374 831.604 208.387 830.179 206.718C828.755 205.05 826.912 203.774 824.652 202.89C822.441 201.958 819.984 201.492 817.282 201.492C813.793 201.492 810.796 202.13 808.29 203.406C805.784 204.682 804.556 206.497 804.605 208.853C804.556 210.521 805.268 212.067 806.742 213.49C808.266 214.913 811.189 216.017 815.513 216.803L838.508 220.925C850.103 223.035 858.726 226.592 864.377 231.598C870.077 236.554 872.951 243.203 873 251.546C872.951 259.594 870.543 266.586 865.777 272.524C861.06 278.413 854.599 282.977 846.394 286.215C838.237 289.405 828.926 291 818.461 291C801.166 291 787.629 287.467 777.851 280.4C768.123 273.334 762.693 264.01 761.563 252.429H801.952C802.492 256.011 804.261 258.784 807.258 260.747C810.305 262.661 814.137 263.618 818.756 263.618C822.49 263.618 825.561 262.98 827.968 261.704C830.425 260.428 831.678 258.612 831.727 256.257C831.678 254.098 830.597 252.38 828.484 251.104C826.421 249.828 823.178 248.798 818.756 248.013L798.709 244.479C787.162 242.467 778.515 238.64 772.766 232.996C767.017 227.353 764.167 220.09 764.217 211.208C764.167 203.357 766.231 196.707 770.407 191.26C774.633 185.764 780.652 181.593 788.464 178.747C796.326 175.852 805.637 174.404 816.397 174.404C832.759 174.404 845.657 177.79 855.091 184.562C864.573 191.334 869.561 200.707 870.052 212.68Z" fill="white"/>
</svg>
